<svg xmlns="http://www.w3.org/2000/svg" width="1200" height="720" viewBox="0 0 1200 720" role="img" aria-label="Output dashboard screenshot preview">
  <rect width="1200" height="720" fill="#f8fafc"/>
  <text x="60" y="70" font-family="Arial" font-size="34" font-weight="700" fill="#0f172a">Final Output</text>
  <rect x="60" y="105" width="1080" height="70" rx="8" fill="#eff6ff" stroke="#bfdbfe"/>
  <text x="90" y="148" font-family="Arial" font-size="18" fill="#1e3a8a">Requirement summary and LLM enhanced summary are shown at the top.</text>
  <rect x="60" y="210" width="180" height="44" rx="6" fill="#2563eb"/>
  <text x="95" y="238" font-family="Arial" font-size="15" font-weight="700" fill="#ffffff">Analysis</text>
  <rect x="255" y="210" width="180" height="44" rx="6" fill="#ffffff" stroke="#dbe4f0"/>
  <text x="292" y="238" font-family="Arial" font-size="15" fill="#475569">Generated Code</text>
  <rect x="450" y="210" width="180" height="44" rx="6" fill="#ffffff" stroke="#dbe4f0"/>
  <text x="500" y="238" font-family="Arial" font-size="15" fill="#475569">Testing</text>
  <rect x="645" y="210" width="180" height="44" rx="6" fill="#ffffff" stroke="#dbe4f0"/>
  <text x="693" y="238" font-family="Arial" font-size="15" fill="#475569">Review</text>
  <rect x="60" y="290" width="510" height="300" rx="8" fill="#ffffff" stroke="#dbe4f0"/>
  <text x="90" y="335" font-family="Arial" font-size="22" font-weight="700" fill="#0f172a">Extracted Features</text>
  <rect x="90" y="365" width="420" height="32" rx="4" fill="#f1f5f9"/>
  <rect x="90" y="410" width="380" height="32" rx="4" fill="#f1f5f9"/>
  <rect x="90" y="455" width="440" height="32" rx="4" fill="#f1f5f9"/>
  <rect x="630" y="290" width="510" height="300" rx="8" fill="#0f172a"/>
  <text x="660" y="335" font-family="Consolas, monospace" font-size="16" fill="#93c5fd">class GeneratedSystemService:</text>
  <text x="660" y="370" font-family="Consolas, monospace" font-size="16" fill="#d1d5db">    def create(self, record):</text>
  <text x="660" y="405" font-family="Consolas, monospace" font-size="16" fill="#d1d5db">        self.records[record.id] = record</text>
  <text x="660" y="440" font-family="Consolas, monospace" font-size="16" fill="#86efac"># syntax and smoke checks passed</text>
</svg>
